Simulation
nRows=40
nColumns=15
endheader
time  TH_x TH_y TH_z SC_y  SC_z  SC_x  AC_y  AC_z  AC_x  GH_y  GH_z  GH_yy  EL_x  PS_y
8.043  0.000000  0.000000  0.000000  -21.885300172004282  4.162159917216767  -1.9528715242031247  55.70145837849223  10.738246635926917  3.841256390804306  21.578733025840044  3.646833555337688  34.99992362473007  17.235702936395263  120.000000
8.09662  0.000000  0.000000  0.000000  -21.369536484208353  3.795458882886421  -3.406320611763077  55.48421411145444  10.290333023861628  4.134434965681936  19.222863512179895  5.8652761027013876  36.827868930887334  16.633255642079234  120.000000
8.15024  0.000000  0.000000  0.000000  -20.803680181281493  3.417538079142067  -4.869345515790799  55.29345062318701  9.992141469785697  4.550222467989392  19.199362594646303  8.27444839782008  36.11763052234647  15.88375482302839  120.000000
8.20386  0.000000  0.000000  0.000000  -20.252330522208684  3.0572657143907644  -6.29339593976583  55.18061060360385  9.87990861476088  5.071867170387496  20.131849028570745  10.910083108176885  34.21404596680001  15.044509547968397  120.000000
8.257480000000001  0.000000  0.000000  0.000000  -19.79931525494196  2.7484120788958335  -7.629526174679856  55.179155018215575  9.982071567526086  5.67665135283419  21.4453580307235  13.815626517843278  31.658732095320925  14.19203584604791  120.000000
8.3111  0.000000  0.000000  0.000000  -19.516482866498848  2.526538479127214  -8.827858684868472  55.31217496288429  10.318039339269367  6.336948031061716  22.835362012770155  17.02195360787955  28.73549158652253  13.400283217454954  120.000000
8.36472  0.000000  0.000000  0.000000  -19.430267393542945  2.4162778880830587  -9.833595569722737  55.596450101730085  10.898111558987669  7.027265464460204  24.145268515600662  20.527641842861577  25.606753543780044  12.718107463317248  120.000000
8.41834  0.000000  0.000000  0.000000  -19.51300743710392  2.412806661978028  -10.5882139618295  56.01913398873302  11.712721487111716  7.738503798854961  25.27759122863849  24.266299940366345  22.411387550443802  12.160315916873264  120.000000
8.47196  0.000000  0.000000  0.000000  -19.692318085953076  2.5011815928751275  -11.045410986887557  56.55454303192217  12.735010516478836  8.460395995032247  26.191430075679772  28.112446256368294  19.256896423830415  11.717372105136322  120.000000
8.52558  0.000000  0.000000  0.000000  -19.878480179890918  2.6785913321316874  -11.176629374469652  57.188198454071475  13.929164056556884  9.162935473515377  26.89609327995626  31.929602463738163  16.202527172928562  11.366774971802483  120.000000
8.5792  0.000000  0.000000  0.000000  -20.00962295409091  2.9474355311122706  -10.963411154923598  57.90175126525726  15.241752228037745  9.81323202436821  27.41251272803186  35.60172218418037  13.287267851208997  11.08610763091147  120.000000
8.63282  0.000000  0.000000  0.000000  -20.07668580181951  3.300760458476507  -10.39137966849178  58.65336674012674  16.593411121751576  10.400761474318763  27.758102001855338  39.04670010422055  10.539638984055765  10.858067927009216  120.000000
8.686440000000001  0.000000  0.000000  0.000000  -20.108588292094193  3.7301638010621483  -9.454156327088215  59.39769722691478  17.889949394637412  10.928253816244204  27.952353395807926  42.22140122737597  7.976622433152337  10.672382273079274  120.000000
8.74006  0.000000  0.000000  0.000000  -20.152762111359266  4.226578143981324  -8.15936795932262  60.097805052325214  19.034825277082845  11.403772422756374  28.016922322969634  45.112937459841824  5.608086102685387  10.524392220071451  120.000000
8.79368  0.000000  0.000000  0.000000  -20.256061867082288  4.777524327289211  -6.530119960827174  60.72075163939901  19.94446068705486  11.84083335045088  27.969630029909045  47.721886225701375  3.440379332450195  10.411889248353525  120.000000
8.8473  0.000000  0.000000  0.000000  -20.45005564970203  5.370315082151941  -4.611069518362403  61.24504114168583  20.565455577807914  12.250209215477037  27.825182916964554  50.054893217552625  1.4736339662537785  10.334460735566472  120.000000
8.90092  0.000000  0.000000  0.000000  -20.743969679706222  5.986382210685178  -2.468716095697384  61.65937377387141  20.880302441501374  12.641248576459581  27.593855090571825  52.117929286864516  -0.2996254191295396  10.291900131218718  120.000000
8.95454  0.000000  0.000000  0.000000  -21.12735849379198  6.6063081663326555  -0.18661342309164286  61.96620401155801  20.906874587314505  13.015163982715679  27.285998998168605  53.916198963854704  -1.893559919522223  10.28370599055338  120.000000
9.00816  0.000000  0.000000  0.000000  -21.57826259091273  7.209718317791617  2.147032829888019  62.17667367763721  20.688474663462195  13.367869040810634  26.915872222183516  55.45934583181365  -3.322931657296654  10.306014024245536  120.000000
9.06178  0.000000  0.000000  0.000000  -22.073444146759545  7.779568376551732  4.453640722380249  62.305991815687115  20.284943745875363  13.690483700967171  26.50486478110051  56.76487851148929  -4.594393323574136  10.34900539967963  120.000000
9.115400000000001  0.000000  0.000000  0.000000  -22.59545845321525  8.30185037663377  6.67015363705252  62.368843502233354  19.75954264811961  13.972513417191104  26.081876267734856  57.859292039247634  -5.702793417451692  10.396941224994446  120.000000
9.16902  0.000000  0.000000  0.000000  -23.132659235098426  8.76526209572854  8.751624344785146  62.377877264759896  19.168289721770286  14.201858757252799  25.681779793050712  58.77150033127766  -6.636054725346592  10.432334975036344  120.000000
9.22264  0.000000  0.000000  0.000000  -23.67429095912581  9.162274493553555  10.66732831979433  62.345960820302146  18.55420471910616  14.365353854081258  25.34227760490341  59.52656170049883  -7.386049578199257  10.442176474142153  120.000000
9.27626  0.000000  0.000000  0.000000  -24.203872034034084  9.486945778253634  12.393986081850747  62.28701619487189  17.944528681805355  14.449836927031884  25.099846177317946  60.13642364588671  -7.9575912623388945  10.423645798946334  120.000000
9.32988  0.000000  0.000000  0.000000  -24.695240595903527  9.73592719402819  13.909674561072785  62.21764342647094  17.35117601622437  14.441392526733882  24.987290879338705  60.595928160492036  -8.37268853232952  10.385138443967051  120.000000
9.3835  0.000000  0.000000  0.000000  -25.11377516190303  9.907359843688214  15.192688976811056  62.15450416637124  16.775048922523027  14.327229771317205  25.032378164211977  60.884722057499886  -8.66479109175905  10.341590739728735  120.000000
9.43712  0.000000  0.000000  0.000000  -25.422308191108623  10.001723179936434  16.22214545117796  62.111174742443126  16.212122198852914  14.095739288716736  25.25537525506341  60.973962430558075  -8.867776072808185  10.305874604914969  120.000000
9.49074  0.000000  0.000000  0.000000  -25.588140747128417  10.019414142122566  16.97899624820809  62.09344732384607  15.657168764607588  13.73885656662562  25.667774862674495  60.832726720730264  -9.004436150112687  10.280903891364302  120.000000
9.544360000000001  0.000000  0.000000  0.000000  -25.58774356559788  9.961207287823935  17.445809929389693  62.09859448306727  15.106528750520267  13.25148507210258  26.271608680542467  60.43232946277238  -9.08058654288359  10.256806497256262  120.000000
9.59798  0.000000  0.000000  0.000000  -25.40822408063285  9.82665116640795  17.60631038930516  62.11596026045717  14.557277250079368  12.632797497069895  27.060014288951432  59.74697699203625  -9.08495929164528  10.215316677745381  120.000000
9.6516  0.000000  0.000000  0.000000  -25.048393841748887  9.61493568831346  17.444212914617673  62.128847120022535  14.00567141894416  11.886269288721088  28.017072258582775  58.75230188528111  -8.992920530182184  10.140661217783956  120.000000
9.70522  0.000000  0.000000  0.000000  -24.520217736923282  9.32452096484952  16.943854370812037  62.11483938030804  13.446780625530929  11.020793830566245  29.11557831273458  57.423771718100106  -8.768890862141347  10.030730668486784  120.000000
9.75884  0.000000  0.000000  0.000000  -23.851977391117476  8.953743160460384  16.092554569018535  62.04562425745458  12.875857880807088  10.055141376549306  30.315720931245878  55.73867182050234  -8.366343590118287  9.905517026664967  120.000000
9.81246  0.000000  0.000000  0.000000  -23.089051165311172  8.502538327989349  14.884480995720715  61.88837982425027  12.294015644775287  9.020277711143118  31.561062568898144  53.67978832216466  -7.72442079879722  9.80214275195764  120.000000
9.86608  0.000000  0.000000  0.000000  -22.293263564313527  7.971967901568324  13.326403790706078  61.607642674075336  11.712520745051792  7.96469182926346  32.77775645943608  51.24184769892086  -6.765585416900187  9.76701690758837  120.000000
9.9197  0.000000  0.000000  0.000000  -21.53210707772714  7.369222077429252  11.443738510001895  61.17744045481865  11.158073179574258  6.950228233930287  33.87425806502484  48.441215450321934  -5.3981728795571975  9.845844809008815  120.000000
9.973320000000001  0.000000  0.000000  0.000000  -20.870867195943536  6.7081788979332515  9.286444249521352  60.58776405101528  10.669646210744904  6.045887642878963  34.742742034025646  45.318456008591006  -3.524082187229934  10.080064145130105  120.000000
10.02694  0.000000  0.000000  0.000000  -20.357921121135764  6.014414611391624  6.927415445977926  59.855396579040004  10.289597679944524  5.311937390413739  35.26571033043945  41.94510034440023  -1.0563360657297427  10.50274711228212  120.000000
10.08056  0.000000  0.000000  0.000000  -20.01428247510423  5.322617105092055  4.458836239912619  59.0231863630981  10.050748291665965  4.789390195592412  35.331965979644444  38.41338423281256  2.0564062117435795  11.13588891520416  120.000000
10.13418  0.000000  0.000000  0.000000  -19.83237398637632  4.667872129655279  1.9772081754555266  58.14780674353032  9.965694081880823  4.492257898240168  34.84767996330561  34.82319561392124  5.816731169718836  11.978948202283057  120.000000
